<?xml version="1.0" encoding="UTF-8"?>
<svg version="1.1" xmlns="http://www.w3.org/2000/svg" width="256" height="288">
<path d="M0 0 C3.72730533 1.80221357 7.26343313 3.81419227 10.82421875 5.921875 C12.56834436 6.92953915 14.3131906 7.93595658 16.05859375 8.94140625 C20.12108825 11.29248887 24.17083341 13.66415256 28.21484375 16.046875 C35.00952782 20.04327017 41.85014531 23.9573156 48.69921875 27.859375 C51.06142702 29.20662984 53.42332349 30.55443074 55.78515625 31.90234375 C56.66108932 32.40220039 56.66108932 32.40220039 57.55471802 32.91215515 C66.99182188 38.29903872 76.41286922 43.71302109 85.80712891 49.17431641 C88.74729188 50.87731743 91.69734509 52.5621257 94.6484375 54.24609375 C96.43673611 55.28292646 98.22452651 56.3206364 100.01171875 57.359375 C100.80707031 57.80700195 101.60242188 58.25462891 102.421875 58.71582031 C108.53301219 62.30796367 113.89630225 66.69753191 116.89559937 73.26942444 C118.2697317 78.67416882 118.1104353 83.94577479 118.09887695 89.50146484 C118.10654335 91.40008018 118.10654335 91.40008018 118.11436462 93.33705139 C118.12771798 96.79789624 118.12833734 100.25863163 118.12580132 103.7194972 C118.12472899 106.61446048 118.12962176 109.50940185 118.13440675 112.40436041 C118.14548955 119.23768935 118.14594645 126.07096331 118.13989258 132.90429688 C118.13385494 139.94005012 118.14616118 146.97560327 118.16746265 154.01132238 C118.18511063 160.06418514 118.19107493 166.1169844 118.1878249 172.16987193 C118.18601678 175.77955674 118.18860084 179.38909884 118.20253944 182.99876022 C118.21751372 187.02713646 118.20811982 191.05510867 118.1965332 195.08349609 C118.20417694 196.27025436 118.21182068 197.45701263 118.21969604 198.67973328 C118.17167696 206.24155015 117.66689059 212.39007059 112.76171875 218.484375 C105.15161083 224.7991454 96.856088 229.75464447 88.19921875 234.484375 C79.70497528 239.18295623 71.26048169 243.94910563 62.88671875 248.859375 C60.89975538 250.02346446 58.91277607 251.18752672 56.92578125 252.3515625 C55.9296582 252.93518555 54.93353516 253.51880859 53.90722656 254.12011719 C45.30830081 259.14546341 36.67654434 264.1140541 28.0390625 269.07275391 C24.81756946 270.92569955 21.60216756 272.78893424 18.38671875 274.65234375 C16.34536031 275.82605707 14.30370638 276.99925667 12.26171875 278.171875 C10.88004517 278.97733765 10.88004517 278.97733765 9.47045898 279.79907227 C0.34068853 285.01283984 -7.62358923 288.54603854 -18.17578125 285.921875 C-30.40525873 281.2070896 -41.68118816 273.4547302 -52.92871094 266.82763672 C-58.2856366 263.68356441 -63.66800094 260.58390825 -69.05078125 257.484375 C-70.12497314 256.86530273 -71.19916504 256.24623047 -72.3059082 255.60839844 C-74.49141709 254.34891394 -76.67704581 253.08963735 -78.86279297 251.83056641 C-82.21892206 249.89702055 -85.57443673 247.96241331 -88.9296875 246.02734375 C-90.03868408 245.38780762 -91.14768066 244.74827148 -92.2902832 244.08935547 C-94.48596524 242.82237385 -96.68112499 241.55448663 -98.87573242 240.28564453 C-103.8346225 237.41936129 -108.79846259 234.56377116 -113.78515625 231.74609375 C-115.07981812 231.00987793 -115.07981812 231.00987793 -116.40063477 230.25878906 C-117.97313076 229.36520851 -119.54884421 228.47725068 -121.12866211 227.59667969 C-128.93352181 223.14497239 -135.12399038 218.75850636 -138.17578125 209.921875 C-138.75283985 205.56930647 -138.73291151 201.2574313 -138.70922852 196.87158203 C-138.71784409 195.57949829 -138.72645966 194.28741455 -138.7353363 192.95617676 C-138.75773266 189.43116235 -138.75491338 185.90659901 -138.74601483 182.38154078 C-138.74088347 179.4294814 -138.74821502 176.4775052 -138.75548691 173.5254544 C-138.77245567 166.55579455 -138.76895162 159.58635379 -138.75219727 152.61669922 C-138.73528592 145.44787609 -138.75110321 138.27966234 -138.78342015 131.11090577 C-138.81019084 124.93649605 -138.81737177 118.76227514 -138.80890507 112.58781326 C-138.80399663 108.90870695 -138.80607696 105.22996686 -138.82669258 101.55090714 C-138.84860694 97.44387558 -138.82956715 93.33798451 -138.80688477 89.23095703 C-138.81857697 88.02647919 -138.83026917 86.82200134 -138.84231567 85.58102417 C-138.7578644 78.04163921 -137.56303875 72.17741481 -133.17578125 65.921875 C-127.88019307 60.78106956 -121.09548218 57.45417242 -114.67578125 53.921875 C-112.61636921 52.77360178 -110.55780094 51.62381421 -108.5 50.47265625 C-107.44989746 49.88564941 -106.39979492 49.29864258 -105.31787109 48.69384766 C-100.34212833 45.88779164 -95.41507163 43.00025742 -90.48828125 40.109375 C-80.62616342 34.33183783 -70.71769546 28.63855179 -60.78564453 22.98242188 C-54.7989482 19.57168946 -48.82284119 16.14439078 -42.8671875 12.6796875 C-41.67888029 11.98949061 -40.49056658 11.29930489 -39.30224609 10.60913086 C-37.0701698 9.31117992 -34.83991339 8.01009238 -32.61181641 6.70532227 C-21.95756121 0.51493556 -12.56221161 -4.26466224 0 0 Z " fill="#3A0292" transform="translate(138.17578125,1.078125)"/>
<path d="M0 0 C1.70736328 0.59361328 1.70736328 0.59361328 3.44921875 1.19921875 C19.98367011 7.57165135 34.77566067 19.58830562 45 34 C45.67675781 34.91458984 45.67675781 34.91458984 46.3671875 35.84765625 C48.23868423 38.4742051 49 39.69793363 49 43 C48.31599121 43.38220703 47.63198242 43.76441406 46.92724609 44.15820312 C44.89092647 45.29637808 42.85481117 46.43491863 40.81884766 47.57373047 C38.51941899 48.85988474 36.21961296 50.14536456 33.91943359 51.43017578 C29.03796983 54.16060363 24.15810219 56.89017846 19.328125 59.7109375 C18.36447021 60.27264648 18.36447021 60.27264648 17.38134766 60.84570312 C15.74320172 61.8057286 14.10969358 62.77365567 12.4765625 63.7421875 C10 65 10 65 7 65 C5.640625 63.4609375 5.640625 63.4609375 4.25 61.375 C-2.23932842 52.35674212 -11.26482127 46.85847954 -22 44 C-39.03811278 42.4080791 -51.28656628 45.11788359 -65.00390625 55.51953125 C-73.05689068 62.63570317 -78.33843242 75.02276985 -79.3359375 85.54296875 C-79.46302073 97.39983409 -77.20401975 108.98411445 -69.3125 118.25 C-67 121 -67 121 -67 123 C-66.12794922 123.40412109 -66.12794922 123.40412109 -65.23828125 123.81640625 C-62.98843765 125.00611412 -61.1713446 126.34961624 -59.1875 127.9375 C-49.25474178 135.49743264 -38.16210168 136.97005796 -26 136 C-11.61928173 133.18464248 -0.56450284 125.78601309 8 114 C12.34279335 114.58610707 15.34487635 116.16538973 19.078125 118.421875 C19.64899841 118.7637384 20.21987183 119.10560181 20.80804443 119.45782471 C22.62623914 120.54839428 24.43825623 121.64875345 26.25 122.75 C28.62870499 124.18479481 31.00968423 125.61579435 33.390625 127.046875 C34.51791016 127.72556641 35.64519531 128.40425781 36.80664062 129.10351562 C40.82451969 131.48966888 44.89031187 133.77628315 49 136 C48.2348605 140.71495412 46.38180639 143.6353668 43.4375 147.3125 C42.7554248 148.17452026 42.7554248 148.17452026 42.05957031 149.05395508 C27.08463605 167.72533363 5.86628291 180.51413778 -18 184 C-45.83367157 185.60294002 -70.00718942 182.21766672 -92 164 C-92.84949219 163.30132812 -93.69898438 162.60265625 -94.57421875 161.8828125 C-111.95515016 146.92403233 -124.16244582 125.91041971 -127 103 C-127.96901092 88.17456456 -128.44558148 73.01567692 -123 59 C-122.63777344 57.97777344 -122.27554688 56.95554688 -121.90234375 55.90234375 C-113.11949549 32.82875935 -95.55740848 13.93971371 -73.4140625 3.20703125 C-50.23324035 -7.1552568 -23.95234355 -8.42079188 0 0 Z " fill="#FEFDFE" transform="translate(161,54)"/>
<path d="M0 0 C3.72730533 1.80221357 7.26343313 3.81419227 10.82421875 5.921875 C12.56834436 6.92953915 14.3131906 7.93595658 16.05859375 8.94140625 C20.12108825 11.29248887 24.17083341 13.66415256 28.21484375 16.046875 C35.00952782 20.04327017 41.85014531 23.9573156 48.69921875 27.859375 C51.06142702 29.20662984 53.42332349 30.55443074 55.78515625 31.90234375 C56.66108932 32.40220039 56.66108932 32.40220039 57.55471802 32.91215515 C66.99006672 38.29803684 76.40995023 43.71010617 85.80273438 49.16992188 C87.79858947 50.32718239 89.79724676 51.47962513 91.79882812 52.62695312 C94.56460247 54.21301329 97.32033933 55.81527446 100.07421875 57.421875 C100.87794922 57.87788086 101.68167969 58.33388672 102.50976562 58.80371094 C107.70381266 61.86600654 111.11961712 65.15544488 114.82421875 69.921875 C111.46709362 72.72651847 108.11750407 75.01766453 104.2890625 77.12890625 C103.23138672 77.71607422 102.17371094 78.30324219 101.08398438 78.90820312 C99.98763672 79.51083984 98.89128906 80.11347656 97.76171875 80.734375 C89.38650867 85.36371053 81.06918857 90.06430869 72.82421875 94.921875 C70.33650345 91.81816623 67.87387115 88.70006146 65.44921875 85.546875 C64.83433594 84.763125 64.21945313 83.979375 63.5859375 83.171875 C62.55166798 81.85094541 61.52818652 80.52120298 60.53125 79.171875 C47.09112057 61.96850932 24.79009307 52.58423347 3.82421875 48.921875 C-25.91656531 47.08482142 -50.61698252 53.0246085 -73.6875 72.65625 C-89.06587494 86.65853801 -102.31582018 108.83523164 -103.32104492 129.97705078 C-103.34575853 133.6670848 -103.36143987 137.35675197 -103.36328125 141.046875 C-103.38165039 142.94953125 -103.38165039 142.94953125 -103.40039062 144.890625 C-103.41699304 155.62685106 -102.23301503 165.19007171 -98.23828125 175.171875 C-97.98626953 175.82671875 -97.73425781 176.4815625 -97.47460938 177.15625 C-95.8071707 181.45491544 -94.01107205 185.69248844 -92.17578125 189.921875 C-92.87437256 190.32390137 -93.57296387 190.72592773 -94.29272461 191.14013672 C-107.95674384 199.00617719 -121.60786098 206.89072442 -135.17578125 214.921875 C-138.37423985 211.7234164 -138.30494127 208.85858339 -138.3296814 204.54124451 C-138.33828186 203.42407547 -138.34688232 202.30690643 -138.35574341 201.15588379 C-138.36000336 199.9293811 -138.36426331 198.70287842 -138.36865234 197.43920898 C-138.37682983 196.14785538 -138.38500732 194.85650177 -138.39343262 193.52601624 C-138.41963269 189.24002158 -138.43496295 184.95401729 -138.44921875 180.66796875 C-138.45458015 179.19005897 -138.45995766 177.71214924 -138.4653511 176.23423958 C-138.48698108 170.08260538 -138.50571436 163.93097378 -138.5169735 157.77931118 C-138.53318921 148.97855366 -138.56630715 140.17823927 -138.62337434 131.37764877 C-138.66217045 125.18215423 -138.68161784 118.9867777 -138.68689406 112.79116493 C-138.69053572 109.09515277 -138.70242822 105.39961345 -138.7349968 101.70373344 C-138.7708802 97.57232553 -138.76668217 93.44186004 -138.75927734 89.31030273 C-138.77568268 88.09796967 -138.79208801 86.8856366 -138.80899048 85.63656616 C-138.75361369 78.06808123 -137.58881311 72.19819516 -133.17578125 65.921875 C-127.87926355 60.78155957 -121.09584469 57.45437188 -114.67578125 53.921875 C-112.61636921 52.77360178 -110.55780094 51.62381421 -108.5 50.47265625 C-107.44989746 49.88564941 -106.39979492 49.29864258 -105.31787109 48.69384766 C-100.34212833 45.88779164 -95.41507163 43.00025742 -90.48828125 40.109375 C-80.62616342 34.33183783 -70.71769546 28.63855179 -60.78564453 22.98242188 C-54.7989482 19.57168946 -48.82284119 16.14439078 -42.8671875 12.6796875 C-41.67888029 11.98949061 -40.49056658 11.29930489 -39.30224609 10.60913086 C-37.0701698 9.31117992 -34.83991339 8.01009238 -32.61181641 6.70532227 C-21.95756121 0.51493556 -12.56221161 -4.26466224 0 0 Z " fill="#A179DC" transform="translate(138.17578125,1.078125)"/>
<path d="M0 0 C2.08997775 1.83282165 3.43229417 3.68848127 4.93359375 6.03125 C17.7842294 24.94043058 36.55305694 38.05081793 58.74609375 43.53125 C59.36959717 43.70640137 59.99310059 43.88155273 60.63549805 44.06201172 C84.85742752 50.33213825 110.66229263 44.79032948 131.99609375 32.6875 C145.38405914 24.18056366 155.02504165 13.61282815 163.74609375 0.53125 C167.59199197 1.217976 170.54541042 2.98006443 173.91015625 4.91796875 C174.50226898 5.25746048 175.09438171 5.59695221 175.70443726 5.94673157 C177.59596304 7.03288708 179.48348276 8.12580827 181.37109375 9.21875 C182.61694414 9.93466845 183.86303577 10.65016727 185.109375 11.36523438 C192.03362693 15.3453243 198.91716774 19.38929328 205.74609375 23.53125 C204.88333935 27.72564022 203.06612048 29.91333806 199.74609375 32.53125 C196.3117377 34.78967524 192.75819539 36.81667519 189.18359375 38.84375 C188.13365234 39.44767578 187.08371094 40.05160156 186.00195312 40.67382812 C183.17019685 42.30029836 180.3345313 43.91963251 177.49627686 45.534729 C174.58913826 47.18999846 171.68541625 48.85124179 168.78125 50.51171875 C165.24640473 52.53218909 161.71098288 54.55163021 158.17358398 56.56762695 C150.67181727 60.84486494 143.19816111 65.16789307 135.74609375 69.53125 C127.35233923 74.44336672 118.93620102 79.31466435 110.49560547 84.14575195 C109.26026231 84.85288053 108.02522856 85.56054997 106.79052734 86.26879883 C105.0657827 87.25777525 103.33955701 88.24416735 101.61328125 89.23046875 C100.62440918 89.79596436 99.63553711 90.36145996 98.61669922 90.9440918 C89.66045909 95.89599833 89.66045909 95.89599833 84.49609375 96.40625 C83.6453125 96.50679688 82.79453125 96.60734375 81.91796875 96.7109375 C72.4142725 96.17255077 64.74257672 91.57035244 56.74609375 86.78125 C55.0232341 85.76820852 53.30036456 84.75518339 51.5769043 83.74316406 C49.80068566 82.69847383 48.02713513 81.64936477 46.25390625 80.59960938 C40.77824738 77.36364919 35.25978803 74.2017917 29.74609375 71.03125 C27.57923176 69.78158862 25.41256555 68.53158771 23.24609375 67.28125 C22.17359375 66.6625 21.10109375 66.04375 19.99609375 65.40625 C16.74609375 63.53125 13.49609375 61.65625 10.24609375 59.78125 C9.17206299 59.1617749 8.09803223 58.5422998 6.99145508 57.90405273 C4.8396968 56.66233621 2.68848583 55.41967077 0.5378418 54.17602539 C-4.5033809 51.2623754 -9.54931454 48.35816061 -14.61569214 45.48849487 C-16.40595947 44.47386385 -18.19444045 43.45615298 -19.98242188 42.4375 C-22.22372397 41.16181817 -24.46832667 39.89191098 -26.71679688 38.62890625 C-41.41085416 30.24295092 -41.41085416 30.24295092 -42.93041992 25.35522461 C-43.03717041 24.75331299 -43.1439209 24.15140137 -43.25390625 23.53125 C-42.61590088 23.1595166 -41.97789551 22.7877832 -41.32055664 22.40478516 C-39.40716578 21.28977154 -37.49402076 20.174336 -35.58105469 19.05859375 C-33.39668443 17.78573905 -31.21112718 16.51491928 -29.02441406 15.24609375 C-23.98715687 12.31845709 -18.9663875 9.37677355 -14.015625 6.3046875 C-13.24532959 5.83208496 -12.47503418 5.35948242 -11.68139648 4.87255859 C-10.25737768 3.99537962 -8.84107416 3.10551777 -7.43383789 2.20166016 C-2.859989 -0.59479841 -2.859989 -0.59479841 0 0 Z " fill="#2A0269" transform="translate(46.25390625,191.46875)"/>
<path d="M0 0 C5.11672457 3.73683737 9.76349399 8.22442337 13.45703125 13.390625 C13.45703125 14.050625 13.45703125 14.710625 13.45703125 15.390625 C14.11703125 15.720625 14.77703125 16.050625 15.45703125 16.390625 C14.95067139 16.66624268 14.44431152 16.94186035 13.92260742 17.22583008 C2.2390019 23.59476708 -9.33974649 30.11522598 -20.83496094 36.81738281 C-23.88128022 38.58717018 -26.9341937 40.34521536 -29.98828125 42.1015625 C-32.25652736 43.40622055 -34.5247564 44.71090826 -36.79296875 46.015625 C-37.9030127 46.65411377 -39.01305664 47.29260254 -40.15673828 47.95043945 C-46.94399083 51.86390596 -53.69922597 55.82197877 -60.35644531 59.95361328 C-64.33167875 62.390625 -64.33167875 62.390625 -66.54296875 62.390625 C-67.03796875 63.380625 -67.03796875 63.380625 -67.54296875 64.390625 C-68.35585928 62.11993078 -69.16829613 59.84907599 -69.98046875 57.578125 C-70.21056641 56.93552734 -70.44066406 56.29292969 -70.67773438 55.63085938 C-75.02326557 43.47596777 -74.90688813 32.23455879 -69.54296875 20.390625 C-63.79592771 8.70950905 -55.37114405 0.86115607 -43.54296875 -4.609375 C-29.01456372 -9.11092226 -12.95667462 -8.19992311 0 0 Z " fill="#A179DB" transform="translate(154.54296875,103.609375)"/>
<path d="M0 0 C1.8664194 0.8935826 3.69849927 1.86076757 5.5 2.87890625 C6.54679932 3.46720215 7.59359863 4.05549805 8.67211914 4.66162109 C9.77031982 5.28891113 10.86852051 5.91620117 12 6.5625 C13.11818115 7.19494629 14.2363623 7.82739258 15.38842773 8.47900391 C23.0309244 12.82121789 30.59652443 17.26059815 38 22 C35.22611574 30.29214337 28.24832698 36.07373785 20.70043945 40.09594727 C7.96721293 46.40210452 -4.4945172 48.50423893 -18.375 43.9375 C-28.43026769 39.92675481 -36.73041997 32.82385337 -43 24 C-43 23.01 -43 22.02 -43 21 C-42.27522461 20.58226318 -41.55044922 20.16452637 -40.80371094 19.73413086 C-38.05259232 18.14827685 -35.30163618 16.56214144 -32.55078125 14.97583008 C-30.79959985 13.96609926 -29.04824002 12.95667793 -27.296875 11.94726562 C-26.1625 11.29306641 -25.028125 10.63886719 -23.859375 9.96484375 C-22.72048828 9.31241699 -21.58160156 8.65999023 -20.40820312 7.98779297 C-18.13218706 6.66033431 -15.87527435 5.2995789 -13.63867188 3.90673828 C-12.58744141 3.25817871 -11.53621094 2.60961914 -10.453125 1.94140625 C-9.52145508 1.35174072 -8.58978516 0.7620752 -7.62988281 0.15454102 C-4.44752672 -1.24254049 -3.25341249 -1.12276369 0 0 Z " fill="#290168" transform="translate(131,145)"/>
<path d="M0 0 C2.31 0 4.62 0 7 0 C7 4.62 7 9.24 7 14 C11.29 14 15.58 14 20 14 C20 9.38 20 4.76 20 0 C22.31 0 24.62 0 27 0 C27 4.62 27 9.24 27 14 C31.62 14 36.24 14 41 14 C41 16.31 41 18.62 41 21 C36.38 21 31.76 21 27 21 C27 25.29 27 29.58 27 34 C31.62 34 36.24 34 41 34 C41 36.31 41 38.62 41 41 C36.38 41 31.76 41 27 41 C27 45.29 27 49.58 27 54 C24.69 54 22.38 54 20 54 C20 49.71 20 45.42 20 41 C15.71 41 11.42 41 7 41 C7 45.29 7 49.58 7 54 C4.69 54 2.38 54 0 54 C0 49.71 0 45.42 0 41 C-4.29 41 -8.58 41 -13 41 C-13 38.69 -13 36.38 -13 34 C-8.71 34 -4.42 34 0 34 C0 29.71 0 25.42 0 21 C-4.29 21 -8.58 21 -13 21 C-13 18.69 -13 16.38 -13 14 C-8.71 14 -4.42 14 0 14 C0 9.38 0 4.76 0 0 Z " fill="#F5F2F9" transform="translate(195,116)"/>
<path d="M0 0 C4.29 0 8.58 0 13 0 C13 4.29 13 8.58 13 13 C8.71 13 4.42 13 0 13 C0 8.71 0 4.42 0 0 Z " fill="#390091" transform="translate(202,137)"/>
</svg>
